<svg width="898" height="769" viewBox="0 0 898 769" fill="none" xmlns="http://www.w3.org/2000/svg">
<path opacity="0.7" d="M367.665 -364.243C380.135 -381.502 398.265 -394.366 419.235 -400.834C440.205 -407.301 462.838 -407.008 483.615 -400.002L1065.53 -203.766C1084.72 -197.291 1101.38 -185.404 1113.27 -169.697C1125.15 -153.989 1131.7 -135.21 1132.03 -115.874L1142.54 496.061C1142.89 516.368 1136.37 536.245 1123.93 552.773C1111.5 569.3 1093.81 581.605 1073.46 587.881L502.232 764.048C481.882 770.325 459.948 770.24 439.652 763.807C419.357 757.374 401.771 744.932 389.478 728.309L19.0311 227.38C7.3256 211.551 0.993778 192.705 0.883217 173.366C0.772667 154.027 6.88864 135.117 18.4125 119.168L367.665 -364.243Z" fill="url(#paint0_linear)"/>
<defs>
<linearGradient id="paint0_linear" x1="233.211" y1="486.3" x2="1090.41" y2="-166.243" gradientUnits="userSpaceOnUse">
<stop stop-color="#C85520"/>
<stop offset="1" stop-color="#F3EEEA"/>
</linearGradient>
</defs>
</svg>
