<svg width="879" height="741" viewBox="0 0 879 741" fill="none" xmlns="http://www.w3.org/2000/svg">
<path opacity="0.8" d="M367.665 -392.718C380.135 -409.977 398.265 -422.842 419.235 -429.309C440.205 -435.776 462.839 -435.483 483.615 -428.477L1065.53 -232.241C1084.73 -225.766 1101.38 -213.88 1113.27 -198.172C1125.15 -182.464 1131.7 -163.685 1132.03 -144.349L1142.54 467.586C1142.89 487.893 1136.37 507.77 1123.93 524.298C1111.5 540.825 1093.81 553.13 1073.46 559.406L502.232 735.573C481.882 741.85 459.948 741.765 439.653 735.332C419.357 728.899 401.771 716.457 389.478 699.834L19.0313 198.905C7.32583 183.076 0.994009 164.23 0.883459 144.891C0.772899 125.551 6.88888 106.642 18.4127 90.6925L367.665 -392.718Z" fill="url(#paint0_linear)"/>
<defs>
<linearGradient id="paint0_linear" x1="233.211" y1="457.825" x2="1090.41" y2="-194.718" gradientUnits="userSpaceOnUse">
<stop stop-color="#C85520"/>
<stop offset="1" stop-color="#F3EEEA"/>
</linearGradient>
</defs>
</svg>
