<svg width="855" height="707" viewBox="0 0 855 707" fill="none" xmlns="http://www.w3.org/2000/svg">
<path opacity="0.8" d="M367.665 -425.939C380.135 -443.199 398.265 -456.063 419.235 -462.53C440.205 -468.997 462.839 -468.705 483.615 -461.698L1065.53 -265.462C1084.73 -258.987 1101.38 -247.101 1113.27 -231.393C1125.15 -215.686 1131.7 -196.906 1132.03 -177.57L1142.54 434.365C1142.89 454.672 1136.37 474.549 1123.93 491.077C1111.5 507.604 1093.81 519.909 1073.46 526.185L502.232 702.352C481.882 708.628 459.948 708.544 439.653 702.111C419.357 695.678 401.771 683.236 389.478 666.613L19.0313 165.684C7.32583 149.854 0.994019 131.009 0.883459 111.669C0.772898 92.3302 6.88888 73.4204 18.4127 57.4713L367.665 -425.939Z" fill="url(#paint0_linear)"/>
<defs>
<linearGradient id="paint0_linear" x1="233.211" y1="424.604" x2="1090.41" y2="-227.939" gradientUnits="userSpaceOnUse">
<stop stop-color="#C85520"/>
<stop offset="1" stop-color="#F3EEEA"/>
</linearGradient>
</defs>
</svg>
